<svg width="73" height="31" viewBox="0 0 73 31" fill="none" xmlns="http://www.w3.org/2000/svg">
<line x1="5.73875" y1="14.8121" x2="24.7265" y2="14.8121" stroke="#DEE1EF" stroke-opacity="0.48" stroke-width="1.69138" stroke-linecap="round"/>
<circle cx="15.1685" cy="15.1685" r="15.1685" fill="white" fill-opacity="0.15"/>
<path fill-rule="evenodd" clip-rule="evenodd" d="M51.7447 7.47124C51.4144 7.14098 50.879 7.14098 50.5487 7.47124C50.2184 7.8015 50.2184 8.33696 50.5487 8.66722L56.3097 14.4282L49.8402 20.8976C49.51 21.2279 49.51 21.7633 49.8402 22.0936C50.1705 22.4239 50.7059 22.4239 51.0362 22.0936L57.5056 15.6242L63.9751 22.0936C64.3053 22.4239 64.8408 22.4239 65.1711 22.0936C65.5013 21.7633 65.5013 21.2279 65.1711 20.8976L58.7016 14.4282L64.4626 8.66724C64.7928 8.33698 64.7928 7.80152 64.4626 7.47126C64.1323 7.14099 63.5969 7.14099 63.2666 7.47126L57.5056 13.2322L51.7447 7.47124Z" fill="white" fill-opacity="0.48"/>
<circle cx="57.5056" cy="15.1685" r="15.1685" fill="white" fill-opacity="0.15"/>
</svg>
