<svg width="173" height="28" viewBox="0 0 173 28" fill="none" xmlns="http://www.w3.org/2000/svg">
<path d="M35.084 23C34.58 23 34.328 22.748 34.328 22.244V8.024C34.328 7.52 34.58 7.268 35.084 7.268C35.436 7.268 35.72 7.432 35.936 7.76L41.804 16.688L41.468 16.736L47.36 7.76C47.568 7.432 47.872 7.268 48.272 7.268C48.704 7.268 48.92 7.52 48.92 8.024V22.244C48.92 22.748 48.668 23 48.164 23C47.66 23 47.408 22.748 47.408 22.244V9.536L47.864 9.692L42.488 17.792C42.272 18.12 41.968 18.284 41.576 18.284C41.264 18.284 41 18.12 40.784 17.792L35.408 9.692L35.84 9.836V22.244C35.84 22.748 35.588 23 35.084 23ZM62.3782 11.384C62.8822 11.384 63.1342 11.636 63.1342 12.14V22.244C63.1342 22.748 62.8822 23 62.3782 23C61.8742 23 61.6222 22.748 61.6222 22.244V21.344C60.8382 22.448 59.5062 23 57.6262 23H56.9542C55.4262 23 54.3022 22.64 53.5822 21.92C52.8622 21.2 52.5022 20.076 52.5022 18.548V12.14C52.5022 11.636 52.7542 11.384 53.2582 11.384C53.7622 11.384 54.0142 11.636 54.0142 12.14V18.548C54.0142 19.652 54.2262 20.42 54.6502 20.852C55.0822 21.276 55.8502 21.488 56.9542 21.488H57.6262C58.7702 21.488 59.6982 21.32 60.4102 20.984C61.1302 20.64 61.5342 20.116 61.6222 19.412V12.14C61.6222 11.636 61.8742 11.384 62.3782 11.384ZM69.5645 22.988C68.5725 22.988 67.8045 22.78 67.2605 22.364C66.7165 21.94 66.3805 21.3 66.2525 20.444C66.2205 20.188 66.2725 19.992 66.4085 19.856C66.5525 19.712 66.7485 19.64 66.9965 19.64C67.2445 19.64 67.4245 19.704 67.5365 19.832C67.6565 19.952 67.7405 20.136 67.7885 20.384C67.8685 20.792 68.0445 21.076 68.3165 21.236C68.5885 21.396 69.0045 21.476 69.5645 21.476H73.5005C74.2125 21.476 74.6965 21.348 74.9525 21.092C75.2085 20.836 75.3365 20.352 75.3365 19.64C75.3365 18.928 75.2085 18.444 74.9525 18.188C74.6965 17.932 74.2125 17.804 73.5005 17.804H69.6245C68.5445 17.804 67.7365 17.54 67.2005 17.012C66.6725 16.484 66.4085 15.68 66.4085 14.6C66.4085 13.496 66.6725 12.684 67.2005 12.164C67.7285 11.636 68.5365 11.372 69.6245 11.372H73.3805C75.2205 11.372 76.2605 12.168 76.5005 13.76C76.5485 14.008 76.5005 14.204 76.3565 14.348C76.2205 14.484 76.0245 14.552 75.7685 14.552C75.5285 14.552 75.3485 14.492 75.2285 14.372C75.1165 14.244 75.0325 14.064 74.9765 13.832C74.9045 13.472 74.7485 13.224 74.5085 13.088C74.2685 12.952 73.8925 12.884 73.3805 12.884H69.6245C68.9605 12.884 68.5085 13 68.2685 13.232C68.0365 13.464 67.9205 13.92 67.9205 14.6C67.9205 15.248 68.0405 15.692 68.2805 15.932C68.5205 16.172 68.9685 16.292 69.6245 16.292H73.5005C74.6365 16.292 75.4765 16.568 76.0205 17.12C76.5725 17.664 76.8485 18.504 76.8485 19.64C76.8485 20.776 76.5725 21.62 76.0205 22.172C75.4765 22.716 74.6365 22.988 73.5005 22.988H69.5645ZM80.4166 9.272C79.7926 9.272 79.4806 8.956 79.4806 8.324V7.724C79.4806 7.108 79.7926 6.8 80.4166 6.8H81.0046C81.6046 6.8 81.9046 7.108 81.9046 7.724V8.324C81.9046 8.956 81.6046 9.272 81.0046 9.272H80.4166ZM80.7046 23C80.2006 23 79.9486 22.748 79.9486 22.244V12.14C79.9486 11.636 80.2006 11.384 80.7046 11.384C81.2086 11.384 81.4606 11.636 81.4606 12.14V22.244C81.4606 22.748 81.2086 23 80.7046 23ZM89.3167 23C87.7887 23 86.6647 22.64 85.9447 21.92C85.2247 21.2 84.8647 20.076 84.8647 18.548V15.812C84.8647 14.276 85.2207 13.152 85.9327 12.44C86.6527 11.72 87.7807 11.368 89.3167 11.384H91.2847C92.4687 11.384 93.3807 11.584 94.0207 11.984C94.6607 12.376 95.0527 12.996 95.1967 13.844C95.2447 14.092 95.1967 14.288 95.0527 14.432C94.9167 14.568 94.7167 14.636 94.4527 14.636C94.2207 14.636 94.0487 14.576 93.9367 14.456C93.8247 14.328 93.7327 14.156 93.6607 13.94C93.5647 13.556 93.3327 13.288 92.9647 13.136C92.6047 12.976 92.0447 12.896 91.2847 12.896H89.3167C88.2127 12.88 87.4447 13.084 87.0127 13.508C86.5887 13.924 86.3767 14.692 86.3767 15.812V18.548C86.3767 19.652 86.5887 20.42 87.0127 20.852C87.4447 21.276 88.2127 21.488 89.3167 21.488H91.2847C92.0447 21.488 92.6047 21.412 92.9647 21.26C93.3327 21.1 93.5647 20.828 93.6607 20.444C93.7327 20.212 93.8247 20.04 93.9367 19.928C94.0567 19.808 94.2327 19.748 94.4647 19.748C94.7207 19.748 94.9167 19.816 95.0527 19.952C95.1967 20.088 95.2447 20.284 95.1967 20.54C95.0527 21.372 94.6607 21.992 94.0207 22.4C93.3807 22.8 92.4687 23 91.2847 23H89.3167ZM104.833 23C104.329 23 104.077 22.748 104.077 22.244V8.024C104.077 7.52 104.329 7.268 104.833 7.268H110.449C111.849 7.268 112.913 7.632 113.641 8.36C114.369 9.088 114.733 10.152 114.733 11.552V12.272C114.733 13.664 114.369 14.728 113.641 15.464C112.913 16.192 111.849 16.556 110.449 16.556H105.589V22.244C105.589 22.748 105.337 23 104.833 23ZM105.589 15.044H110.449C111.433 15.044 112.141 14.828 112.573 14.396C113.005 13.956 113.221 13.248 113.221 12.272V11.552C113.221 10.576 113.005 9.872 112.573 9.44C112.141 9 111.433 8.78 110.449 8.78H105.589V15.044ZM120.52 23C119.36 23 118.5 22.724 117.94 22.172C117.388 21.612 117.112 20.756 117.112 19.604V7.028C117.112 6.524 117.364 6.272 117.868 6.272C118.372 6.272 118.624 6.524 118.624 7.028V19.604C118.624 20.332 118.756 20.828 119.02 21.092C119.284 21.356 119.78 21.488 120.508 21.488C121.028 21.488 121.288 21.74 121.288 22.244C121.304 22.748 121.048 23 120.52 23ZM126.702 23C125.43 23 124.49 22.696 123.882 22.088C123.274 21.48 122.97 20.54 122.97 19.268C122.97 17.988 123.274 17.044 123.882 16.436C124.49 15.828 125.43 15.524 126.702 15.524H132.042C132.01 14.54 131.774 13.856 131.334 13.472C130.902 13.088 130.158 12.896 129.102 12.896H127.71C126.766 12.896 126.07 12.988 125.622 13.172C125.182 13.348 124.898 13.656 124.77 14.096C124.69 14.336 124.59 14.512 124.47 14.624C124.358 14.728 124.186 14.78 123.954 14.78C123.706 14.78 123.51 14.712 123.366 14.576C123.23 14.432 123.182 14.24 123.222 14C123.374 13.088 123.818 12.424 124.554 12.008C125.29 11.592 126.342 11.384 127.71 11.384H129.102C130.638 11.384 131.762 11.744 132.474 12.464C133.194 13.176 133.554 14.3 133.554 15.836V22.244C133.554 22.748 133.302 23 132.798 23C132.294 23 132.042 22.748 132.042 22.244V21.26C131.25 22.42 129.918 23 128.046 23H126.702ZM126.702 21.488H128.046C128.766 21.488 129.406 21.412 129.966 21.26C130.534 21.108 130.998 20.856 131.358 20.504C131.726 20.152 131.954 19.676 132.042 19.076V17.036H126.702C125.846 17.036 125.262 17.192 124.95 17.504C124.638 17.816 124.482 18.404 124.482 19.268C124.482 20.124 124.638 20.708 124.95 21.02C125.262 21.332 125.846 21.488 126.702 21.488ZM140.111 27.8C139.023 27.8 138.215 27.536 137.687 27.008C137.167 26.48 136.907 25.668 136.907 24.572C136.907 24.068 137.159 23.816 137.663 23.816C138.167 23.816 138.419 24.068 138.419 24.572C138.419 25.244 138.535 25.696 138.767 25.928C138.999 26.168 139.447 26.288 140.111 26.288H144.431C145.095 26.288 145.543 26.168 145.775 25.928C146.007 25.696 146.123 25.244 146.123 24.572V21.356C145.667 21.996 145.103 22.432 144.431 22.664C143.759 22.896 142.991 23.012 142.127 23.012H141.287C139.775 23.012 138.667 22.66 137.963 21.956C137.259 21.252 136.907 20.152 136.907 18.656V12.128C136.907 11.624 137.159 11.372 137.663 11.372C138.167 11.372 138.419 11.624 138.419 12.128V18.656C138.419 19.736 138.623 20.48 139.031 20.888C139.447 21.296 140.199 21.5 141.287 21.5H142.127C143.503 21.5 144.511 21.264 145.151 20.792C145.799 20.32 146.123 19.608 146.123 18.656V12.128C146.123 11.624 146.375 11.372 146.879 11.372C147.383 11.372 147.635 11.624 147.635 12.128V24.572C147.635 25.668 147.371 26.48 146.843 27.008C146.323 27.536 145.519 27.8 144.431 27.8H140.111ZM152.563 17.792V18.572C152.563 19.668 152.775 20.428 153.199 20.852C153.631 21.276 154.399 21.488 155.503 21.488H157.471C158.423 21.488 159.115 21.376 159.547 21.152C159.987 20.928 160.255 20.54 160.351 19.988C160.407 19.748 160.495 19.568 160.615 19.448C160.735 19.328 160.915 19.268 161.155 19.268C161.403 19.268 161.591 19.336 161.719 19.472C161.855 19.6 161.903 19.792 161.863 20.048C161.735 21.048 161.307 21.792 160.579 22.28C159.859 22.76 158.823 23 157.471 23H155.503C153.975 23 152.851 22.64 152.131 21.92C151.411 21.2 151.051 20.084 151.051 18.572V15.836C151.051 14.284 151.411 13.152 152.131 12.44C152.851 11.72 153.975 11.368 155.503 11.384H157.471C159.007 11.384 160.131 11.744 160.843 12.464C161.563 13.176 161.923 14.3 161.923 15.836V17.036C161.923 17.54 161.671 17.792 161.167 17.792H152.563ZM155.503 12.896C154.399 12.88 153.631 13.084 153.199 13.508C152.775 13.932 152.563 14.708 152.563 15.836V16.28H160.411V15.836C160.411 14.724 160.199 13.956 159.775 13.532C159.351 13.108 158.583 12.896 157.471 12.896H155.503ZM166.094 23C165.59 23 165.338 22.748 165.338 22.244V12.14C165.338 11.636 165.59 11.384 166.094 11.384C166.598 11.384 166.85 11.636 166.85 12.14V13.676C167.29 12.932 167.894 12.364 168.662 11.972C169.43 11.58 170.33 11.384 171.362 11.384C171.866 11.384 172.118 11.636 172.118 12.14C172.118 12.644 171.866 12.896 171.362 12.896C169.954 12.896 168.866 13.196 168.098 13.796C167.338 14.396 166.922 15.232 166.85 16.304V22.244C166.85 22.748 166.598 23 166.094 23Z" fill="white" fill-opacity="0.49"/>
<path fill-rule="evenodd" clip-rule="evenodd" d="M20 6.00001C20 5.70606 19.8707 5.42699 19.6464 5.23699C19.4221 5.04698 19.1256 4.96529 18.8356 5.01361L6.8356 7.01361C6.35341 7.09398 6 7.51117 6 8.00001V19H3C1.34315 19 0 20.3432 0 22C0 23.6569 1.34315 25 3 25H5C6.65685 25 8 23.6569 8 22V20V8.84713L18 7.18047V17H15C13.3431 17 12 18.3432 12 20C12 21.6569 13.3431 23 15 23H17C18.6569 23 20 21.6569 20 20V18V6.00001ZM14 20C14 19.4477 14.4477 19 15 19H18V20C18 20.5523 17.5523 21 17 21H15C14.4477 21 14 20.5523 14 20ZM2 22C2 21.4477 2.44772 21 3 21H6V22C6 22.5523 5.55228 23 5 23H3C2.44772 23 2 22.5523 2 22Z" fill="white" fill-opacity="0.48"/>
</svg>
