<svg width="175" height="32" viewBox="0 0 175 32" fill="none" xmlns="http://www.w3.org/2000/svg">
<g filter="url(#filter0_d_3_736)">
<path d="M28.88 23C28.456 23 28.244 22.788 28.244 22.364V8.168C28.244 7.744 28.456 7.532 28.88 7.532C29.184 7.532 29.424 7.672 29.6 7.952L35.576 17.084L35.288 17.12L41.264 7.952C41.432 7.672 41.684 7.532 42.02 7.532C42.396 7.532 42.584 7.744 42.584 8.168V22.364C42.584 22.788 42.376 23 41.96 23C41.536 23 41.324 22.788 41.324 22.364V9.428L41.696 9.548L36.152 17.996C35.976 18.268 35.724 18.404 35.396 18.404C35.108 18.404 34.876 18.268 34.7 17.996L29.156 9.548L29.504 9.68V22.364C29.504 22.788 29.296 23 28.88 23ZM50.2323 23C48.7363 23 47.6403 22.656 46.9443 21.968C46.2483 21.272 45.9003 20.18 45.9003 18.692V15.98C45.9003 14.468 46.2483 13.368 46.9443 12.68C47.6403 11.984 48.7363 11.644 50.2323 11.66H52.2003C53.6963 11.66 54.7883 12.008 55.4763 12.704C56.1723 13.392 56.5203 14.484 56.5203 15.98V18.668C56.5203 20.164 56.1723 21.26 55.4763 21.956C54.7883 22.652 53.6963 23 52.2003 23H50.2323ZM47.1603 18.692C47.1603 19.82 47.3843 20.612 47.8323 21.068C48.2883 21.516 49.0883 21.74 50.2323 21.74H52.2003C53.3443 21.74 54.1403 21.516 54.5883 21.068C55.0363 20.612 55.2603 19.812 55.2603 18.668V15.98C55.2603 14.836 55.0363 14.04 54.5883 13.592C54.1403 13.144 53.3443 12.92 52.2003 12.92H50.2323C49.4643 12.912 48.8563 13.004 48.4083 13.196C47.9603 13.388 47.6403 13.708 47.4483 14.156C47.2563 14.604 47.1603 15.212 47.1603 15.98V18.692ZM60.4812 23C60.0572 23 59.8452 22.788 59.8452 22.364V12.284C59.8452 11.868 60.0572 11.66 60.4812 11.66C60.8972 11.66 61.1053 11.868 61.1053 12.284V14.132C61.5212 13.332 62.1212 12.72 62.9053 12.296C63.6972 11.872 64.6332 11.66 65.7133 11.66C66.1373 11.66 66.3493 11.868 66.3493 12.284C66.3493 12.708 66.1373 12.92 65.7133 12.92C64.2893 12.92 63.1852 13.244 62.4012 13.892C61.6172 14.532 61.1852 15.448 61.1053 16.64V22.364C61.1053 22.788 60.8972 23 60.4812 23ZM68.5194 17.816V18.692C68.5194 19.82 68.7434 20.612 69.1914 21.068C69.6474 21.516 70.4474 21.74 71.5914 21.74H73.5594C74.5674 21.74 75.2994 21.612 75.7554 21.356C76.2194 21.092 76.4954 20.64 76.5834 20C76.6154 19.8 76.6794 19.648 76.7754 19.544C76.8794 19.44 77.0354 19.388 77.2434 19.388C77.4514 19.388 77.6074 19.448 77.7114 19.568C77.8234 19.68 77.8674 19.84 77.8434 20.048C77.7394 21.056 77.3354 21.8 76.6314 22.28C75.9274 22.76 74.9034 23 73.5594 23H71.5914C70.0954 23 68.9994 22.656 68.3034 21.968C67.6074 21.272 67.2594 20.18 67.2594 18.692V15.98C67.2594 14.468 67.6074 13.368 68.3034 12.68C68.9994 11.984 70.0954 11.644 71.5914 11.66H73.5594C75.0554 11.66 76.1474 12.008 76.8354 12.704C77.5314 13.392 77.8794 14.484 77.8794 15.98V17.18C77.8794 17.604 77.6714 17.816 77.2554 17.816H68.5194ZM71.5914 12.92C70.4474 12.904 69.6474 13.124 69.1914 13.58C68.7434 14.028 68.5194 14.828 68.5194 15.98V16.556H76.6194V15.98C76.6194 14.836 76.3954 14.04 75.9474 13.592C75.4994 13.144 74.7034 12.92 73.5594 12.92H71.5914ZM99.0957 11.636C100.384 11.636 101.304 11.964 101.856 12.62C102.416 13.276 102.696 14.36 102.696 15.872V22.388C102.696 22.804 102.488 23.012 102.072 23.012C101.648 23.012 101.436 22.804 101.436 22.388V15.872C101.436 14.816 101.256 14.056 100.896 13.592C100.536 13.128 99.9358 12.896 99.0957 12.896H98.0998C97.0518 12.896 96.2997 13.128 95.8437 13.592C95.3957 14.056 95.1717 14.816 95.1717 15.872V22.388C95.1717 22.804 94.9637 23.012 94.5477 23.012C94.1237 23.012 93.9117 22.804 93.9117 22.388V15.872C93.9117 14.816 93.7317 14.056 93.3717 13.592C93.0117 13.128 92.4117 12.896 91.5717 12.896H90.5757C89.5277 12.896 88.7757 13.128 88.3197 13.592C87.8717 14.056 87.6477 14.816 87.6477 15.872V22.388C87.6477 22.804 87.4397 23.012 87.0237 23.012C86.5997 23.012 86.3877 22.804 86.3877 22.388V12.284C86.3877 11.868 86.5997 11.66 87.0237 11.66C87.4397 11.66 87.6477 11.868 87.6477 12.284V13.22C87.9997 12.652 88.4157 12.248 88.8957 12.008C89.3837 11.76 89.9997 11.636 90.7437 11.636H91.5717C92.4117 11.636 93.0837 11.784 93.5877 12.08C94.0997 12.368 94.5037 12.844 94.7998 13.508C95.1517 12.844 95.5837 12.368 96.0957 12.08C96.6077 11.784 97.2758 11.636 98.0998 11.636H99.0957ZM115.654 11.66C116.078 11.66 116.29 11.868 116.29 12.284V22.364C116.29 22.788 116.078 23 115.654 23C115.238 23 115.03 22.788 115.03 22.364V21.224C114.27 22.408 112.894 23 110.902 23H110.23C108.734 23 107.638 22.652 106.942 21.956C106.254 21.26 105.91 20.164 105.91 18.668V12.284C105.91 11.868 106.118 11.66 106.534 11.66C106.958 11.66 107.17 11.868 107.17 12.284V18.668C107.17 19.812 107.394 20.612 107.842 21.068C108.298 21.516 109.094 21.74 110.23 21.74H110.902C112.142 21.74 113.118 21.54 113.83 21.14C114.542 20.74 114.942 20.128 115.03 19.304V12.284C115.03 11.868 115.238 11.66 115.654 11.66ZM122.418 22.976C121.434 22.976 120.682 22.768 120.162 22.352C119.642 21.928 119.33 21.284 119.226 20.42C119.202 20.212 119.246 20.052 119.358 19.94C119.47 19.82 119.634 19.76 119.85 19.76C120.05 19.76 120.198 19.812 120.294 19.916C120.398 20.02 120.466 20.176 120.498 20.384C120.57 20.88 120.75 21.228 121.038 21.428C121.334 21.62 121.794 21.716 122.418 21.716H126.354C127.098 21.716 127.61 21.576 127.89 21.296C128.17 21.016 128.31 20.504 128.31 19.76C128.31 19.008 128.17 18.492 127.89 18.212C127.61 17.932 127.098 17.792 126.354 17.792H122.466C121.426 17.792 120.65 17.544 120.138 17.048C119.634 16.544 119.382 15.772 119.382 14.732C119.382 13.668 119.634 12.888 120.138 12.392C120.642 11.888 121.418 11.636 122.466 11.636H126.234C128.042 11.636 129.046 12.436 129.246 14.036C129.278 14.244 129.234 14.408 129.114 14.528C129.002 14.64 128.842 14.696 128.634 14.696C128.434 14.696 128.282 14.644 128.178 14.54C128.082 14.436 128.014 14.284 127.974 14.084C127.918 13.636 127.754 13.328 127.482 13.16C127.218 12.984 126.802 12.896 126.234 12.896H122.466C121.77 12.896 121.29 13.024 121.026 13.28C120.77 13.536 120.642 14.02 120.642 14.732C120.642 15.412 120.774 15.884 121.038 16.148C121.302 16.404 121.778 16.532 122.466 16.532H126.354C127.458 16.532 128.27 16.796 128.79 17.324C129.31 17.844 129.57 18.656 129.57 19.76C129.57 20.856 129.31 21.668 128.79 22.196C128.27 22.716 127.458 22.976 126.354 22.976H122.418ZM132.861 9.476C132.309 9.476 132.033 9.192 132.033 8.624V8.084C132.033 7.532 132.309 7.256 132.861 7.256H133.401C133.937 7.256 134.205 7.532 134.205 8.084V8.624C134.205 9.192 133.937 9.476 133.401 9.476H132.861ZM133.137 23C132.713 23 132.501 22.788 132.501 22.364V12.284C132.501 11.868 132.713 11.66 133.137 11.66C133.553 11.66 133.761 11.868 133.761 12.284V22.364C133.761 22.788 133.553 23 133.137 23ZM141.411 23C139.915 23 138.819 22.652 138.123 21.956C137.427 21.26 137.079 20.164 137.079 18.668V15.956C137.079 14.46 137.423 13.368 138.111 12.68C138.807 11.984 139.907 11.644 141.411 11.66H143.379C144.555 11.66 145.451 11.86 146.067 12.26C146.691 12.652 147.063 13.272 147.183 14.12C147.207 14.336 147.159 14.5 147.039 14.612C146.927 14.724 146.767 14.78 146.559 14.78C146.367 14.78 146.223 14.732 146.127 14.636C146.031 14.532 145.959 14.384 145.911 14.192C145.823 13.728 145.587 13.4 145.203 13.208C144.819 13.016 144.211 12.92 143.379 12.92H141.411C140.267 12.904 139.467 13.12 139.011 13.568C138.563 14.008 138.339 14.804 138.339 15.956V18.668C138.339 19.812 138.563 20.612 139.011 21.068C139.467 21.516 140.267 21.74 141.411 21.74H143.379C144.211 21.74 144.819 21.644 145.203 21.452C145.587 21.26 145.823 20.928 145.911 20.456C145.959 20.264 146.031 20.12 146.127 20.024C146.223 19.92 146.367 19.868 146.559 19.868C146.767 19.868 146.927 19.928 147.039 20.048C147.159 20.16 147.207 20.32 147.183 20.528C147.063 21.376 146.691 22 146.067 22.4C145.451 22.8 144.555 23 143.379 23H141.411Z" fill="white" fill-opacity="0.41" shape-rendering="crispEdges"/>
</g>
<path fill-rule="evenodd" clip-rule="evenodd" d="M158.832 9C158.04 9 157.563 9.87525 157.99 10.5408L165.159 21.6915C165.552 22.3038 166.448 22.3038 166.841 21.6915L174.01 10.5408C174.437 9.87525 173.959 9 173.168 9L158.832 9Z" fill="white" fill-opacity="0.41"/>
<path fill-rule="evenodd" clip-rule="evenodd" d="M1.83167 9C1.0405 9 0.562658 9.87525 0.990487 10.5408L8.15882 21.6915C8.55246 22.3038 9.44754 22.3038 9.84118 21.6915L17.0095 10.5408C17.4373 9.87525 16.9595 9 16.1683 9L1.83167 9Z" fill="white" fill-opacity="0.41"/>
<defs>
<filter id="filter0_d_3_736" x="24.244" y="7.25601" width="126.975" height="23.756" filterUnits="userSpaceOnUse" color-interpolation-filters="sRGB">
<feFlood flood-opacity="0" result="BackgroundImageFix"/>
<feColorMatrix in="SourceAlpha" type="matrix" values="0 0 0 0 0 0 0 0 0 0 0 0 0 0 0 0 0 0 127 0" result="hardAlpha"/>
<feOffset dy="4"/>
<feGaussianBlur stdDeviation="2"/>
<feComposite in2="hardAlpha" operator="out"/>
<feColorMatrix type="matrix" values="0 0 0 0 0 0 0 0 0 0 0 0 0 0 0 0 0 0 0.25 0"/>
<feBlend mode="normal" in2="BackgroundImageFix" result="effect1_dropShadow_3_736"/>
<feBlend mode="normal" in="SourceGraphic" in2="effect1_dropShadow_3_736" result="shape"/>
</filter>
</defs>
</svg>
